# xmcd
#
# Track frame offsets:
#	150
#	15986
#	31705
#	40732
#	58496
#	72045
#	78890
#	96847
#	106825
#	117416
#	131243
#	144897
#
# Disc length: 2056 seconds
#
# Revision: 1
# Processed by: cddbd v1.5.2PL0 Copyright (c) Steve Scherf et al.
# Submitted via: audiograbber 1.83.01
#
DISCID=9508060c
DTITLE=Jeff Gonzales - Earl's Garage
DYEAR=1900
DGENRE=Bluegrass
TTITLE0=Don't Let Your Deal Go Down
TTITLE1=Blue Railroad Train
TTITLE2=Cannonball Rag
TTITLE3=Rocky Top
TTITLE4=Freight Train
TTITLE5=Doc's Guitar
TTITLE6=Deep River Blues
TTITLE7=Top of the World
TTITLE8=Windy and Warm
TTITLE9=Fishin' Blues
TTITLE10=Darling Corey
TTITLE11=WWI Medley
EXTD=
EXTT0=
EXTT1=
EXTT2=
EXTT3=
EXTT4=
EXTT5=
EXTT6=
EXTT7=
EXTT8=
EXTT9=
EXTT10=
EXTT11=
PLAYORDER=
